<?xml version="1.0" encoding="utf-8"?>
<!-- Generator: Adobe Illustrator 23.0.1, SVG Export Plug-In . SVG Version: 6.00 Build 0)  -->
<svg version="1.1" id="Capa_1" xmlns="http://www.w3.org/2000/svg" xmlns:xlink="http://www.w3.org/1999/xlink" x="0px" y="0px"
	 viewBox="0 0 92.4 92.4" style="enable-background:new 0 0 92.4 92.4;" xml:space="preserve">
<style type="text/css">
	.st0{fill:#00BCAF;}
	.st1{fill:#00D6C7;}
	.st2{enable-background:new    ;}
	.st3{fill:#FFFFFF;}
</style>
<g id="Grupo_2" transform="translate(-42.785 -26.329)">
	
		<rect id="Rectángulo_6" x="56" y="39.5" transform="matrix(0.7986 -0.6018 0.6018 0.7986 -25.7366 68.1693)" class="st0" width="66" height="66"/>
	
		<rect id="Rectángulo_5" x="56" y="39.5" transform="matrix(0.6018 -0.7986 0.7986 0.6018 -22.4976 99.9645)" class="st1" width="66" height="66"/>
	<g id="Símbolo_1_1">
		<g class="st2">
			<path class="st3" d="M76.3,87.1c-0.6-0.6-0.9-1.5-0.9-2.6V57.7c0-1.1,0.3-2,0.9-2.6c0.6-0.6,1.5-0.9,2.6-0.9h9.6
				c3.7,0,6.8,0.7,9.5,2c2.7,1.3,4.7,3.3,6.1,5.8c1.4,2.5,2.1,5.6,2.1,9.1c0,3.5-0.7,6.6-2.1,9.1c-1.4,2.5-3.4,4.5-6.1,5.8
				c-2.7,1.3-5.8,2-9.6,2h-9.6C77.7,88,76.9,87.7,76.3,87.1z M88,82c7.2,0,10.8-3.6,10.8-10.9c0-7.2-3.6-10.8-10.8-10.8h-5.1V82H88z
				"/>
		</g>
	</g>
</g>
</svg>
