<?xml version="1.0" encoding="utf-8"?>
<!-- Generator: Adobe Illustrator 23.0.1, SVG Export Plug-In . SVG Version: 6.00 Build 0)  -->
<svg version="1.1" id="Capa_1" xmlns="http://www.w3.org/2000/svg" xmlns:xlink="http://www.w3.org/1999/xlink" x="0px" y="0px"
	 viewBox="0 0 830 1603" style="enable-background:new 0 0 830 1603;" xml:space="preserve">
<style type="text/css">
	.st0{opacity:0.25;}
	.st1{fill:#FFFFFF;}
</style>
<desc>Created with Sketch.</desc>
<g id="Group" class="st0">
	
		<g id="Oval" transform="translate(414.000000, 801.000000) rotate(-270.000000) translate(-414.000000, -801.000000) translate(-387.000000, 387.000000)">
		<circle class="st1" cx="865.4" cy="398.2" r="2"/>
		<circle class="st1" cx="821.6" cy="536.9" r="2"/>
		<circle class="st1" cx="1042.8" cy="627.4" r="2"/>
		<circle class="st1" cx="843.9" cy="687" r="2"/>
		<circle class="st1" cx="785.4" cy="384.9" r="1"/>
		<circle class="st1" cx="755.2" cy="394.9" r="1"/>
		<circle class="st1" cx="664.7" cy="357.6" r="1"/>
		<circle class="st1" cx="671.9" cy="387.8" r="1"/>
		<circle class="st1" cx="790.4" cy="461.8" r="1"/>
		<circle class="st1" cx="888.8" cy="501.3" r="1"/>
		<circle class="st1" cx="857.2" cy="448" r="1"/>
		<circle class="st1" cx="870.9" cy="504.9" r="1"/>
		<circle class="st1" cx="900.3" cy="532.9" r="1"/>
		<circle class="st1" cx="812" cy="598.2" r="1"/>
		<circle class="st1" cx="762.4" cy="565.9" r="1"/>
		<circle class="st1" cx="732.9" cy="592.5" r="1"/>
		<circle class="st1" cx="760.2" cy="639.9" r="1"/>
		<circle class="st1" cx="974.3" cy="677.3" r="1"/>
		<circle class="st1" cx="921.9" cy="693.8" r="1"/>
		<circle class="st1" cx="806.9" cy="610.5" r="1"/>
		<circle class="st1" cx="839.2" cy="578.1" r="1"/>
		<circle class="st1" cx="815.5" cy="626.3" r="1"/>
		<circle class="st1" cx="948.4" cy="489.1" r="1"/>
		<circle class="st1" cx="978.6" cy="458.9" r="1"/>
		<circle class="st1" cx="901" cy="361.2" r="1"/>
		<circle class="st1" cx="892.4" cy="329.6" r="1"/>
		<circle class="st1" cx="1079.2" cy="470.4" r="1"/>
		<circle class="st1" cx="974.3" cy="204.6" r="1"/>
		<circle class="st1" cx="947" cy="213.2" r="1"/>
		<circle class="st1" cx="856.5" cy="175.8" r="1"/>
		<circle class="st1" cx="863.7" cy="206" r="1"/>
		<circle class="st1" cx="980.8" cy="281.5" r="1"/>
		<circle class="st1" cx="785.4" cy="219.7" r="1"/>
		<circle class="st1" cx="783.9" cy="244.1" r="1"/>
		<circle class="st1" cx="722.2" cy="168" r="1"/>
		<circle class="st1" cx="741.6" cy="270.7" r="1"/>
		<circle class="st1" cx="693.4" cy="261.3" r="1"/>
		<circle class="st1" cx="546.3" cy="190.3" r="1"/>
		<circle class="st1" cx="519" cy="198.9" r="1"/>
		<circle class="st1" cx="428.5" cy="161.5" r="1"/>
		<circle class="st1" cx="435.7" cy="191.7" r="1"/>
		<circle class="st1" cx="898.2" cy="119.8" r="1"/>
		<circle class="st1" cx="1134.8" cy="416.2" r="2"/>
		<circle class="st1" cx="1178.6" cy="277.6" r="2"/>
		<circle class="st1" cx="957.4" cy="187" r="2"/>
		<circle class="st1" cx="1220.6" cy="179.4" r="2"/>
		<circle class="st1" cx="1264.3" cy="64.6" r="2"/>
		<circle class="st1" cx="1071.3" cy="64.6" r="2"/>
		<circle class="st1" cx="1212.8" cy="431.6" r="1"/>
		<circle class="st1" cx="1242.9" cy="421.5" r="1"/>
		<circle class="st1" cx="1333.5" cy="458.9" r="1"/>
		<circle class="st1" cx="1326.3" cy="428.7" r="1"/>
		<circle class="st1" cx="1207.7" cy="354.7" r="1"/>
		<circle class="st1" cx="1109.3" cy="315.2" r="1"/>
		<circle class="st1" cx="1117" cy="332.8" r="1"/>
		<circle class="st1" cx="1127.3" cy="311.6" r="1"/>
		<circle class="st1" cx="1097.8" cy="283.6" r="1"/>
		<circle class="st1" cx="1186.2" cy="218.2" r="1"/>
		<circle class="st1" cx="1235.8" cy="250.6" r="1"/>
		<circle class="st1" cx="1265.2" cy="224" r="1"/>
		<circle class="st1" cx="1237.9" cy="176.6" r="1"/>
		<circle class="st1" cx="1023.9" cy="139.2" r="1"/>
		<circle class="st1" cx="1076.3" cy="122.7" r="1"/>
		<circle class="st1" cx="1191.2" cy="206" r="1"/>
		<circle class="st1" cx="1158.9" cy="238.3" r="1"/>
		<circle class="st1" cx="1182.6" cy="190.2" r="1"/>
		<circle class="st1" cx="1049.7" cy="327.4" r="1"/>
		<circle class="st1" cx="1019.5" cy="357.6" r="1"/>
		<circle class="st1" cx="1097.1" cy="455.3" r="1"/>
		<circle class="st1" cx="1105.7" cy="486.9" r="1"/>
		<circle class="st1" cx="919" cy="346.1" r="1"/>
		<circle class="st1" cx="1023.9" cy="611.9" r="1"/>
		<circle class="st1" cx="1051.2" cy="603.3" r="1"/>
		<circle class="st1" cx="1141.7" cy="640.6" r="1"/>
		<circle class="st1" cx="1134.5" cy="610.5" r="1"/>
		<circle class="st1" cx="1017.4" cy="535" r="1"/>
		<circle class="st1" cx="1212.8" cy="596.8" r="1"/>
		<circle class="st1" cx="1214.2" cy="572.4" r="1"/>
		<circle class="st1" cx="1276" cy="648.5" r="1"/>
		<circle class="st1" cx="1256.6" cy="545.8" r="1"/>
		<circle class="st1" cx="1304.7" cy="555.2" r="1"/>
		<circle class="st1" cx="1106.5" cy="773.5" r="1"/>
		<circle class="st1" cx="1133.8" cy="764.9" r="1"/>
		<circle class="st1" cx="1224.3" cy="802.3" r="1"/>
		<circle class="st1" cx="1217.1" cy="772.1" r="1"/>
		<circle class="st1" cx="1100" cy="696.7" r="1"/>
		<circle class="st1" cx="630.6" cy="520.2" r="2"/>
		<circle class="st1" cx="697.6" cy="649.3" r="2"/>
		<circle class="st1" cx="918.1" cy="556.8" r="2"/>
		<circle class="st1" cx="819.5" cy="739.7" r="2"/>
		<circle class="st1" cx="982.1" cy="770.2" r="2"/>
		<circle class="st1" cx="563.5" cy="567" r="1"/>
		<circle class="st1" cx="549.3" cy="595.4" r="1"/>
		<circle class="st1" cx="451.6" cy="637.5" r="1"/>
		<circle class="st1" cx="485.3" cy="649.3" r="1"/>
		<circle class="st1" cx="346.1" cy="569" r="1"/>
		<circle class="st1" cx="253.7" cy="575.1" r="1"/>
		<circle class="st1" cx="267.9" cy="395.3" r="1"/>
		<circle class="st1" cx="621.4" cy="617.8" r="1"/>
		<circle class="st1" cx="718.9" cy="576.1" r="1"/>
		<circle class="st1" cx="663.9" cy="536" r="1"/>
		<circle class="st1" cx="708.8" cy="591.4" r="1"/>
		<circle class="st1" cx="749.4" cy="590.3" r="1"/>
		<circle class="st1" cx="733.2" cy="699" r="1"/>
		<circle class="st1" cx="675.3" cy="711.2" r="1"/>
		<circle class="st1" cx="673.2" cy="750.9" r="1"/>
		<circle class="st1" cx="726.1" cy="765.1" r="1"/>
		<circle class="st1" cx="903.8" cy="640.1" r="1"/>
		<circle class="st1" cx="878.4" cy="688.9" r="1"/>
		<circle class="st1" cx="738.2" cy="711.2" r="1"/>
		<circle class="st1" cx="738.2" cy="665.5" r="1"/>
		<circle class="st1" cx="755.5" cy="716.3" r="1"/>
		<circle class="st1" cx="752.5" cy="525.3" r="1"/>
		<circle class="st1" cx="752.5" cy="482.6" r="1"/>
		<circle class="st1" cx="628.5" cy="468.4" r="1"/>
		<circle class="st1" cx="600.1" cy="452.2" r="1"/>
		<circle class="st1" cx="831.7" cy="419.7" r="1"/>
		<circle class="st1" cx="569.6" cy="305.9" r="1"/>
		<circle class="st1" cx="556.4" cy="331.3" r="1"/>
		<circle class="st1" cx="466" cy="368.9" r="1"/>
		<circle class="st1" cx="492.4" cy="385.1" r="1"/>
		<circle class="st1" cx="628.5" cy="355.7" r="1"/>
		<circle class="st1" cx="449.6" cy="421.2" r="1"/>
		<circle class="st1" cx="163.1" cy="410" r="1"/>
		<circle class="st1" cx="365.4" cy="458.3" r="1"/>
		<circle class="st1" cx="451.8" cy="517.2" r="1"/>
		<circle class="st1" cx="411.1" cy="544.6" r="1"/>
		<circle class="st1" cx="396.9" cy="250" r="1"/>
		<circle class="st1" cx="290.5" cy="157" r="1"/>
		<circle class="st1" cx="186.9" cy="190.5" r="1"/>
		<circle class="st1" cx="146.3" cy="178.3" r="1"/>
		<circle class="st1" cx="118.8" cy="191.6" r="1"/>
		<circle class="st1" cx="226.5" cy="210.9" r="1"/>
		<circle class="st1" cx="170.7" cy="109.3" r="1"/>
		<circle class="st1" cx="203.2" cy="93" r="1"/>
		<circle class="st1" cx="172.7" cy="85.9" r="1"/>
		<circle class="st1" cx="430.3" cy="228.1" r="1"/>
		<circle class="st1" cx="106.7" cy="112.3" r="1"/>
		<circle class="st1" cx="137.1" cy="128.6" r="1"/>
		<circle class="st1" cx="168.6" cy="73.7" r="1"/>
		<circle class="st1" cx="118.8" cy="83.9" r="1"/>
		<circle class="st1" cx="118.8" cy="83.9" r="1"/>
		<circle class="st1" cx="226.5" cy="99.1" r="1"/>
		<circle class="st1" cx="455.8" cy="299.8" r="1"/>
		<circle class="st1" cx="833.7" cy="342.5" r="2"/>
		<circle class="st1" cx="766.7" cy="213.4" r="2"/>
		<circle class="st1" cx="546.3" cy="305.9" r="2"/>
		<circle class="st1" cx="610.2" cy="316" r="2"/>
		<circle class="st1" cx="644.8" cy="123" r="2"/>
		<circle class="st1" cx="898.8" cy="297.8" r="1"/>
		<circle class="st1" cx="913" cy="269.3" r="1"/>
		<circle class="st1" cx="1003.4" cy="231.7" r="1"/>
		<circle class="st1" cx="978" cy="236.8" r="1"/>
		<circle class="st1" cx="1067.4" cy="244.9" r="1"/>
		<circle class="st1" cx="977" cy="215.5" r="1"/>
		<circle class="st1" cx="840.8" cy="247" r="1"/>
		<circle class="st1" cx="743.3" cy="288.6" r="1"/>
		<circle class="st1" cx="754.5" cy="279.5" r="1"/>
		<circle class="st1" cx="753.5" cy="273.4" r="1"/>
		<circle class="st1" cx="712.9" cy="274.4" r="1"/>
		<circle class="st1" cx="729.1" cy="165.7" r="1"/>
		<circle class="st1" cx="787" cy="153.5" r="1"/>
		<circle class="st1" cx="789" cy="113.9" r="1"/>
		<circle class="st1" cx="736.2" cy="99.6" r="1"/>
		<circle class="st1" cx="558.4" cy="224.6" r="1"/>
		<circle class="st1" cx="583.8" cy="175.8" r="1"/>
		<circle class="st1" cx="724" cy="153.5" r="1"/>
		<circle class="st1" cx="724" cy="199.2" r="1"/>
		<circle class="st1" cx="706.8" cy="148.4" r="1"/>
		<circle class="st1" cx="709.8" cy="339.4" r="1"/>
		<circle class="st1" cx="709.8" cy="382.1" r="1"/>
		<circle class="st1" cx="833.7" cy="396.3" r="1"/>
		<circle class="st1" cx="862.2" cy="412.5" r="1"/>
		<circle class="st1" cx="630.6" cy="445.1" r="1"/>
		<circle class="st1" cx="892.7" cy="558.8" r="1"/>
		<circle class="st1" cx="905.9" cy="533.4" r="1"/>
		<circle class="st1" cx="996.3" cy="495.9" r="1"/>
		<circle class="st1" cx="969.9" cy="479.6" r="1"/>
		<circle class="st1" cx="833.7" cy="509.1" r="1"/>
		<circle class="st1" cx="1015.6" cy="414.6" r="1"/>
		<circle class="st1" cx="999.3" cy="396.3" r="1"/>
		<circle class="st1" cx="1096.8" cy="406.5" r="1"/>
		<circle class="st1" cx="1010.5" cy="347.5" r="1"/>
		<circle class="st1" cx="1175.9" cy="375.4" r="1"/>
		<circle class="st1" cx="1065.4" cy="614.7" r="1"/>
		<circle class="st1" cx="1078.6" cy="589.3" r="1"/>
		<circle class="st1" cx="1169" cy="551.7" r="1"/>
		<circle class="st1" cx="1142.6" cy="535.5" r="1"/>
		<circle class="st1" cx="215.6" cy="431.9" r="2"/>
		<circle class="st1" cx="166.6" cy="174.3" r="2"/>
		<circle class="st1" cx="38.1" cy="202.7" r="2"/>
		<circle class="st1" cx="144.2" cy="25" r="2"/>
		<circle class="st1" cx="293.6" cy="447.3" r="1"/>
		<circle class="st1" cx="323.7" cy="437.2" r="1"/>
		<circle class="st1" cx="414.3" cy="474.6" r="1"/>
		<circle class="st1" cx="407.1" cy="444.4" r="1"/>
		<circle class="st1" cx="288.5" cy="370.4" r="1"/>
		<circle class="st1" cx="96.5" cy="211.9" r="1"/>
		<circle class="st1" cx="221.8" cy="384.1" r="1"/>
		<circle class="st1" cx="114.8" cy="208.8" r="1"/>
		<circle class="st1" cx="85.3" cy="180.4" r="1"/>
		<circle class="st1" cx="173.7" cy="115.4" r="1"/>
		<circle class="st1" cx="223.5" cy="147.9" r="1"/>
		<circle class="st1" cx="252.9" cy="121.5" r="1"/>
		<circle class="st1" cx="225.5" cy="73.7" r="1"/>
		<circle class="st1" cx="104.7" cy="154.9" r="1"/>
		<circle class="st1" cx="64" cy="19.9" r="1"/>
		<circle class="st1" cx="178.8" cy="103.2" r="1"/>
		<circle class="st1" cx="146.3" cy="135.7" r="1"/>
		<circle class="st1" cx="169.6" cy="86.9" r="1"/>
		<circle class="st1" cx="37.6" cy="224.1" r="1"/>
		<circle class="st1" cx="100.3" cy="373.3" r="1"/>
		<circle class="st1" cx="177.9" cy="471" r="1"/>
		<circle class="st1" cx="186.5" cy="502.6" r="1"/>
		<circle class="st1" cx="104.7" cy="627.6" r="1"/>
		<circle class="st1" cx="132" cy="619" r="1"/>
		<circle class="st1" cx="222.5" cy="656.3" r="1"/>
		<circle class="st1" cx="215.3" cy="626.1" r="1"/>
		<circle class="st1" cx="98.2" cy="550.7" r="1"/>
		<circle class="st1" cx="293.6" cy="612.5" r="1"/>
		<circle class="st1" cx="295" cy="588.1" r="1"/>
		<circle class="st1" cx="356.8" cy="664.2" r="1"/>
		<circle class="st1" cx="337.4" cy="561.5" r="1"/>
		<circle class="st1" cx="385.5" cy="570.8" r="1"/>
		<circle class="st1" cx="532.7" cy="641.9" r="1"/>
		<circle class="st1" cx="559.9" cy="633.3" r="1"/>
		<circle class="st1" cx="650.5" cy="670.6" r="1"/>
		<circle class="st1" cx="643.3" cy="640.5" r="1"/>
		<circle class="st1" cx="180.8" cy="712.3" r="1"/>
		<circle class="st1" cx="123.6" cy="643.1" r="2"/>
		<circle class="st1" cx="9.7" cy="765.6" r="2"/>
		<circle class="st1" cx="55.1" cy="692.9" r="1"/>
		<circle class="st1" cx="29.2" cy="504.7" r="1"/>
		<circle class="st1" cx="59.4" cy="474.6" r="1"/>
		<circle class="st1" cx="160" cy="486" r="1"/>
		<circle class="st1" cx="55.1" cy="220.3" r="1"/>
		<circle class="st1" cx="27.8" cy="228.9" r="1"/>
		<circle class="st1" cx="61.6" cy="297.1" r="1"/>
		<circle class="st1" cx="450.4" cy="309.9" r="2"/>
		<circle class="st1" cx="290.5" cy="62.5" r="2"/>
		<circle class="st1" cx="70.1" cy="155" r="2"/>
		<circle class="st1" cx="359.2" cy="98.1" r="2"/>
		<circle class="st1" cx="16.8" cy="98.1" r="2"/>
		<circle class="st1" cx="515.4" cy="265.2" r="1"/>
		<circle class="st1" cx="529.7" cy="236.7" r="1"/>
		<circle class="st1" cx="627.3" cy="194.6" r="1"/>
		<circle class="st1" cx="593.6" cy="182.9" r="1"/>
		<circle class="st1" cx="732.8" cy="263.1" r="1"/>
		<circle class="st1" cx="457.5" cy="214.4" r="1"/>
		<circle class="st1" cx="275.3" cy="140.8" r="1"/>
		<circle class="st1" cx="415" cy="296.2" r="1"/>
		<circle class="st1" cx="277.3" cy="122.5" r="1"/>
		<circle class="st1" cx="236.7" cy="123.5" r="1"/>
		<circle class="st1" cx="252.9" cy="14.8" r="1"/>
		<circle class="st1" cx="403.7" cy="120.9" r="1"/>
		<circle class="st1" cx="405.7" cy="81.3" r="1"/>
		<circle class="st1" cx="352.9" cy="67.1" r="1"/>
		<circle class="st1" cx="82.3" cy="73.7" r="1"/>
		<circle class="st1" cx="107.7" cy="25" r="1"/>
		<circle class="st1" cx="2" cy="164.1" r="1"/>
		<circle class="st1" cx="247.9" cy="48.3" r="1"/>
		<circle class="st1" cx="323.4" cy="115.8" r="1"/>
		<circle class="st1" cx="233.6" cy="188.5" r="1"/>
		<circle class="st1" cx="233.6" cy="231.2" r="1"/>
		<circle class="st1" cx="450.4" cy="363.7" r="1"/>
		<circle class="st1" cx="478.9" cy="380" r="1"/>
		<circle class="st1" cx="247.2" cy="412.5" r="1"/>
		<circle class="st1" cx="509.3" cy="526.3" r="1"/>
		<circle class="st1" cx="522.5" cy="500.9" r="1"/>
		<circle class="st1" cx="613" cy="463.3" r="1"/>
		<circle class="st1" cx="586.5" cy="447" r="1"/>
		<circle class="st1" cx="450.4" cy="476.5" r="1"/>
		<circle class="st1" cx="629.4" cy="411" r="1"/>
		<circle class="st1" cx="713.5" cy="373.9" r="1"/>
		<circle class="st1" cx="627.2" cy="315" r="1"/>
		<circle class="st1" cx="667.8" cy="287.5" r="1"/>
		<circle class="st1" cx="682" cy="582.2" r="1"/>
		<circle class="st1" cx="695.2" cy="556.8" r="1"/>
		<circle class="st1" cx="759.2" cy="502.9" r="1"/>
		<circle class="st1" cx="648.7" cy="604" r="1"/>
		<circle class="st1" cx="759.2" cy="614.7" r="1"/>
		<circle class="st1" cx="623.1" cy="532.4" r="1"/>
		<circle class="st1" cx="247.2" cy="487.7" r="2"/>
		<circle class="st1" cx="314.3" cy="616.7" r="2"/>
		<circle class="st1" cx="534.7" cy="524.2" r="2"/>
		<circle class="st1" cx="470.7" cy="514.1" r="2"/>
		<circle class="st1" cx="436.2" cy="707.1" r="2"/>
		<circle class="st1" cx="180.2" cy="534.4" r="1"/>
		<circle class="st1" cx="166" cy="562.8" r="1"/>
		<circle class="st1" cx="75.6" cy="600.4" r="1"/>
		<circle class="st1" cx="101" cy="595.4" r="1"/>
		<circle class="st1" cx="11.6" cy="587.2" r="1"/>
		<circle class="st1" cx="102" cy="616.7" r="1"/>
		<circle class="st1" cx="238.1" cy="585.2" r="1"/>
		<circle class="st1" cx="335.6" cy="543.5" r="1"/>
		<circle class="st1" cx="324.4" cy="552.7" r="1"/>
		<circle class="st1" cx="591.8" cy="691.4" r="1"/>
		<circle class="st1" cx="366.1" cy="557.8" r="1"/>
		<circle class="st1" cx="349.8" cy="666.5" r="1"/>
		<circle class="st1" cx="291.9" cy="678.7" r="1"/>
		<circle class="st1" cx="289.9" cy="718.3" r="1"/>
		<circle class="st1" cx="342.7" cy="732.5" r="1"/>
		<circle class="st1" cx="520.5" cy="607.5" r="1"/>
		<circle class="st1" cx="495.1" cy="656.3" r="1"/>
		<circle class="st1" cx="354.9" cy="678.7" r="1"/>
		<circle class="st1" cx="354.9" cy="633" r="1"/>
		<circle class="st1" cx="372.2" cy="683.8" r="1"/>
		<circle class="st1" cx="369.1" cy="492.8" r="1"/>
		<circle class="st1" cx="369.1" cy="450.1" r="1"/>
		<circle class="st1" cx="245.2" cy="435.9" r="1"/>
		<circle class="st1" cx="216.8" cy="419.6" r="1"/>
		<circle class="st1" cx="448.4" cy="387.1" r="1"/>
		<circle class="st1" cx="93.5" cy="155" r="1"/>
		<circle class="st1" cx="242.3" cy="92" r="1"/>
		<circle class="st1" cx="82.7" cy="336.3" r="1"/>
		<circle class="st1" cx="109.1" cy="352.5" r="1"/>
		<circle class="st1" cx="152.4" cy="204.8" r="1"/>
		<circle class="st1" cx="63.4" cy="417.6" r="1"/>
		<circle class="st1" cx="79.6" cy="435.9" r="1"/>
		<circle class="st1" cx="68.5" cy="484.6" r="1"/>
		<circle class="st1" cx="27.8" cy="512" r="1"/>
		<circle class="st1" cx="13.6" cy="217.4" r="1"/>
		<circle class="st1" cx="72.5" cy="267.2" r="1"/>
		<circle class="st1" cx="1006.4" cy="564.9" r="1"/>
		<circle class="st1" cx="1374" cy="594.9" r="2"/>
		<circle class="st1" cx="1391.3" cy="590.8" r="2"/>
		<circle class="st1" cx="1513.2" cy="600" r="2"/>
		<circle class="st1" cx="1507.1" cy="478" r="2"/>
		<circle class="st1" cx="1501" cy="201.7" r="2"/>
		<circle class="st1" cx="1213.9" cy="308.2" r="1"/>
		<circle class="st1" cx="1225.4" cy="339.9" r="1"/>
		<circle class="st1" cx="1299.4" cy="484.2" r="1"/>
		<circle class="st1" cx="1246.9" cy="500.8" r="1"/>
		<circle class="st1" cx="1273.5" cy="296" r="1"/>
		<circle class="st1" cx="1303.7" cy="265.9" r="1"/>
		<circle class="st1" cx="1226.1" cy="168.2" r="1"/>
		<circle class="st1" cx="1217.5" cy="136.6" r="1"/>
		<circle class="st1" cx="1404.2" cy="277.4" r="1"/>
		<circle class="st1" cx="1305.8" cy="88.4" r="1"/>
		<circle class="st1" cx="1459.8" cy="223.2" r="2"/>
		<circle class="st1" cx="1503.7" cy="84.5" r="2"/>
		
			<ellipse transform="matrix(2.172397e-02 -0.9998 0.9998 2.172397e-02 1265.9283 1770.8546)" class="st1" cx="1537.8" cy="238.6" rx="1" ry="1"/>
		<circle class="st1" cx="1568" cy="228.5" r="1"/>
		<circle class="st1" cx="1470.6" cy="275" r="1"/>
		<circle class="st1" cx="1463.4" cy="244.8" r="1"/>
		<circle class="st1" cx="1532.8" cy="161.7" r="1"/>
		<circle class="st1" cx="1434.4" cy="122.2" r="1"/>
		<circle class="st1" cx="1448.8" cy="123.6" r="1"/>
		<circle class="st1" cx="1452.4" cy="118.6" r="1"/>
		<circle class="st1" cx="1422.9" cy="90.6" r="1"/>
		<circle class="st1" cx="1374.8" cy="134.4" r="1"/>
		<circle class="st1" cx="1344.6" cy="164.6" r="1"/>
		<circle class="st1" cx="1422.2" cy="262.3" r="1"/>
		<circle class="st1" cx="1430.8" cy="293.9" r="1"/>
		<circle class="st1" cx="1244.1" cy="153.1" r="1"/>
		<circle class="st1" cx="1348.9" cy="418.9" r="1"/>
		<circle class="st1" cx="1376.2" cy="410.3" r="1"/>
		<circle class="st1" cx="1466.7" cy="447.6" r="1"/>
		<circle class="st1" cx="1459.6" cy="417.4" r="1"/>
		<circle class="st1" cx="1342.5" cy="342" r="1"/>
		
			<ellipse transform="matrix(0.9985 -5.530016e-02 5.530016e-02 0.9985 -19.9764 85.6607)" class="st1" cx="1537.8" cy="403.8" rx="1" ry="1"/>
		<circle class="st1" cx="1539.3" cy="379.4" r="1"/>
		<circle class="st1" cx="1601.1" cy="455.5" r="1"/>
		<circle class="st1" cx="1581.7" cy="352.8" r="1"/>
		<circle class="st1" cx="1599.3" cy="382.4" r="1"/>
		<circle class="st1" cx="1431.5" cy="580.5" r="1"/>
		<circle class="st1" cx="1458.8" cy="571.9" r="1"/>
		<circle class="st1" cx="1549.3" cy="609.2" r="1"/>
		<circle class="st1" cx="1542.2" cy="579.1" r="1"/>
		<circle class="st1" cx="1425.1" cy="503.6" r="1"/>
		<circle class="st1" cx="1243.1" cy="363.8" r="2"/>
		<circle class="st1" cx="1310" cy="769.6" r="2"/>
		<circle class="st1" cx="1228.9" cy="447.1" r="1"/>
		<circle class="st1" cx="1223.8" cy="104.7" r="1"/>
		<circle class="st1" cx="1238" cy="76.3" r="1"/>
		<circle class="st1" cx="1217.7" cy="365.8" r="1"/>
		<circle class="st1" cx="1307" cy="610.1" r="1"/>
		<circle class="st1" cx="1321.3" cy="302.8" r="1"/>
		<circle class="st1" cx="1294.9" cy="286.6" r="1"/>
		<circle class="st1" cx="1340.6" cy="221.6" r="1"/>
		<circle class="st1" cx="1324.4" cy="203.3" r="1"/>
		<circle class="st1" cx="1421.9" cy="213.4" r="1"/>
		<circle class="st1" cx="1335.6" cy="154.5" r="1"/>
		<circle class="st1" cx="1376.2" cy="127.1" r="1"/>
		<circle class="st1" cx="1249.7" cy="673.8" r="2"/>
		<circle class="st1" cx="1291.7" cy="575.6" r="2"/>
		<circle class="st1" cx="1198.4" cy="707.8" r="1"/>
		<circle class="st1" cx="1257.3" cy="614.5" r="1"/>
		<circle class="st1" cx="1306.9" cy="646.8" r="1"/>
		<circle class="st1" cx="1336.3" cy="620.2" r="1"/>
		<circle class="st1" cx="1309" cy="572.8" r="1"/>
		<circle class="st1" cx="1262.3" cy="602.2" r="1"/>
		<circle class="st1" cx="1230" cy="634.6" r="1"/>
		<circle class="st1" cx="1253.7" cy="586.4" r="1"/>
		<circle class="st1" cx="1285" cy="704.5" r="1"/>
		<circle class="st1" cx="1344.6" cy="692.2" r="1"/>
		<circle class="st1" cx="1374.8" cy="662.1" r="1"/>
		<circle class="st1" cx="1297.2" cy="564.4" r="1"/>
		<circle class="st1" cx="1288.6" cy="532.8" r="1"/>
		<circle class="st1" cx="1475.4" cy="673.6" r="1"/>
		<circle class="st1" cx="1376.9" cy="484.6" r="1"/>
		<circle class="st1" cx="1505.5" cy="518.4" r="1"/>
		<circle class="st1" cx="1494" cy="486.8" r="1"/>
		<circle class="st1" cx="1445.9" cy="530.6" r="1"/>
		<circle class="st1" cx="1415.7" cy="560.8" r="1"/>
		<circle class="st1" cx="1493.3" cy="658.5" r="1"/>
		<circle class="st1" cx="1501.9" cy="690.1" r="1"/>
		<circle class="st1" cx="1315.2" cy="549.3" r="1"/>
		<circle class="st1" cx="1294.9" cy="500.9" r="1"/>
		<circle class="st1" cx="1309.2" cy="472.5" r="1"/>
		<circle class="st1" cx="1392.5" cy="699" r="1"/>
		<circle class="st1" cx="1366" cy="682.8" r="1"/>
		<circle class="st1" cx="1411.8" cy="617.8" r="1"/>
		<circle class="st1" cx="1395.5" cy="599.5" r="1"/>
		<circle class="st1" cx="1493" cy="609.7" r="1"/>
		<circle class="st1" cx="1406.7" cy="550.7" r="1"/>
		<circle class="st1" cx="1447.3" cy="523.3" r="1"/>
		<circle class="st1" cx="1390.4" cy="421.7" r="1"/>
		<circle class="st1" cx="1403.6" cy="396.3" r="1"/>
		<circle class="st1" cx="1494" cy="358.7" r="1"/>
		<circle class="st1" cx="1467.6" cy="342.5" r="1"/>
		<circle class="st1" cx="139.2" cy="185.5" r="1"/>
		<circle class="st1" cx="286.4" cy="357.4" r="2"/>
		<circle class="st1" cx="271" cy="437.4" r="1"/>
		<circle class="st1" cx="281" cy="467.6" r="1"/>
		<circle class="st1" cx="243.7" cy="558.1" r="1"/>
		<circle class="st1" cx="273.9" cy="550.9" r="1"/>
		<circle class="st1" cx="347.8" cy="432.4" r="1"/>
		<circle class="st1" cx="387.4" cy="334" r="1"/>
		<circle class="st1" cx="276.3" cy="223" r="1"/>
		<circle class="st1" cx="390.9" cy="351.9" r="1"/>
		<circle class="st1" cx="399.8" cy="298.2" r="1"/>
		<circle class="st1" cx="251.9" cy="125.5" r="1"/>
		<circle class="st1" cx="154.4" cy="202.7" r="1"/>
		<circle class="st1" cx="213.9" cy="354.1" r="1"/>
		<circle class="st1" cx="90.7" cy="248.5" r="1"/>
		<circle class="st1" cx="99.3" cy="275.8" r="1"/>
		<circle class="st1" cx="92.1" cy="359.1" r="1"/>
		<circle class="st1" cx="105.8" cy="437.4" r="1"/>
		<circle class="st1" cx="130.2" cy="438.8" r="1"/>
		<circle class="st1" cx="156.8" cy="481.2" r="1"/>
		<circle class="st1" cx="147.4" cy="529.4" r="1"/>
		<circle class="st1" cx="203.2" cy="202.7" r="1"/>
		<circle class="st1" cx="289.5" cy="157" r="1"/>
		<circle class="st1" cx="87.9" cy="290" r="1"/>
		<circle class="st1" cx="100.1" cy="328.6" r="1"/>
		<circle class="st1" cx="150.8" cy="393.6" r="1"/>
		<circle class="st1" cx="167.1" cy="367.2" r="1"/>
		<circle class="st1" cx="436.7" cy="765.6" r="2"/>
		<circle class="st1" cx="37.1" cy="670.1" r="2"/>
		<circle class="st1" cx="102.6" cy="735.8" r="2"/>
		<circle class="st1" cx="224.5" cy="729.7" r="2"/>
		<circle class="st1" cx="394.3" cy="438.5" r="1"/>
		<circle class="st1" cx="362.7" cy="450" r="1"/>
		<circle class="st1" cx="218.3" cy="524" r="1"/>
		<circle class="st1" cx="201.8" cy="471.6" r="1"/>
		<circle class="st1" cx="406.5" cy="498.1" r="1"/>
		<circle class="st1" cx="408.7" cy="655.5" r="1"/>
		<circle class="st1" cx="283.7" cy="573.6" r="1"/>
		<circle class="st1" cx="292.3" cy="600.9" r="1"/>
		<circle class="st1" cx="255" cy="691.4" r="1"/>
		<circle class="st1" cx="285.1" cy="684.2" r="1"/>
		<circle class="st1" cx="360.6" cy="567.1" r="1"/>
		<circle class="st1" cx="298.8" cy="762.5" r="1"/>
		<circle class="st1" cx="323.2" cy="763.9" r="1"/>
		<circle class="st1" cx="247.1" cy="825.7" r="1"/>
		<circle class="st1" cx="349.8" cy="806.3" r="1"/>
		<circle class="st1" cx="320.1" cy="824" r="1"/>
		<circle class="st1" cx="122.1" cy="656.2" r="1"/>
		<circle class="st1" cx="130.7" cy="683.5" r="1"/>
		<circle class="st1" cx="93.3" cy="774" r="1"/>
		<circle class="st1" cx="123.5" cy="766.8" r="1"/>
		<circle class="st1" cx="198.9" cy="649.7" r="1"/>
		<circle class="st1" cx="338.8" cy="465.7" r="2"/>
		<circle class="st1" cx="125.5" cy="529.7" r="2"/>
		<circle class="st1" cx="255.5" cy="453.5" r="1"/>
		<circle class="st1" cx="336.7" cy="442.4" r="1"/>
		<circle class="st1" cx="480" cy="585.7" r="1"/>
		<circle class="st1" cx="399.7" cy="546" r="1"/>
		<circle class="st1" cx="280.9" cy="615.1" r="1"/>
		<circle class="st1" cx="1483.3" cy="676.5" r="1"/>
		<circle class="st1" cx="1491.9" cy="703.8" r="1"/>
		<circle class="st1" cx="1454.6" cy="794.3" r="1"/>
		<circle class="st1" cx="1484.8" cy="787.1" r="1"/>
		<circle class="st1" cx="1560.2" cy="670" r="1"/>
		<circle class="st1" cx="1456.2" cy="668.9" r="2"/>
		<circle class="st1" cx="1242.9" cy="732.9" r="2"/>
		<circle class="st1" cx="1372.9" cy="656.7" r="1"/>
		<circle class="st1" cx="1454.2" cy="645.5" r="1"/>
		<circle class="st1" cx="1597.5" cy="788.9" r="1"/>
		<circle class="st1" cx="1517.2" cy="749.2" r="1"/>
		<circle class="st1" cx="1398.3" cy="818.3" r="1"/>
		<circle class="st1" cx="306.3" cy="628.3" r="1"/>
		<circle class="st1" cx="343.9" cy="718.7" r="1"/>
		<circle class="st1" cx="360.1" cy="692.3" r="1"/>
		<circle class="st1" cx="570.5" cy="708.7" r="1"/>
		<circle class="st1" cx="1331.5" cy="371.9" r="1"/>
		<circle class="st1" cx="2" cy="164.1" r="1"/>
		<circle class="st1" cx="2" cy="164.1" r="1"/>
		<circle class="st1" cx="2" cy="164.1" r="1"/>
		<circle class="st1" cx="2" cy="164.1" r="1"/>
		<circle class="st1" cx="2" cy="164.1" r="1"/>
		<circle class="st1" cx="2" cy="164.1" r="1"/>
		<circle class="st1" cx="2" cy="164.1" r="1"/>
		<circle class="st1" cx="2" cy="164.1" r="1"/>
		<circle class="st1" cx="972.7" cy="86.9" r="2"/>
		
			<ellipse transform="matrix(0.9999 -1.723382e-02 1.723382e-02 0.9999 -5.0685 26.5785)" class="st1" cx="1539.6" cy="307.4" rx="2" ry="2"/>
		<circle class="st1" cx="2" cy="164.1" r="1"/>
		<circle class="st1" cx="2" cy="164.1" r="1"/>
		<circle class="st1" cx="2" cy="164.1" r="1"/>
		<circle class="st1" cx="2" cy="164.1" r="1"/>
		<circle class="st1" cx="2" cy="164.1" r="1"/>
		<circle class="st1" cx="2" cy="164.1" r="1"/>
		<circle class="st1" cx="2" cy="164.1" r="1"/>
		<circle class="st1" cx="2" cy="164.1" r="1"/>
		<circle class="st1" cx="2" cy="164.1" r="1"/>
		<circle class="st1" cx="2" cy="164.1" r="1"/>
		<circle class="st1" cx="2" cy="164.1" r="1"/>
		<circle class="st1" cx="2" cy="164.1" r="1"/>
		<circle class="st1" cx="2" cy="164.1" r="1"/>
		<circle class="st1" cx="2" cy="164.1" r="1"/>
		<circle class="st1" cx="2" cy="164.1" r="1"/>
		<circle class="st1" cx="2" cy="164.1" r="1"/>
		<circle class="st1" cx="2" cy="164.1" r="1"/>
		<circle class="st1" cx="2" cy="164.1" r="1"/>
		<circle class="st1" cx="2" cy="164.1" r="1"/>
		<circle class="st1" cx="2" cy="164.1" r="1"/>
		<circle class="st1" cx="2" cy="164.1" r="1"/>
		<circle class="st1" cx="1395.3" cy="751.3" r="2"/>
		<circle class="st1" cx="257.6" cy="307.4" r="2"/>
		<circle class="st1" cx="308.4" cy="284" r="2"/>
		<circle class="st1" cx="544" cy="109.3" r="2"/>
		<circle class="st1" cx="2" cy="164.1" r="1"/>
		<circle class="st1" cx="2" cy="164.1" r="1"/>
		<circle class="st1" cx="2" cy="164.1" r="1"/>
		<circle class="st1" cx="2" cy="164.1" r="1"/>
		<circle class="st1" cx="2" cy="164.1" r="1"/>
		<circle class="st1" cx="2" cy="164.1" r="1"/>
		<circle class="st1" cx="2" cy="164.1" r="1"/>
		<circle class="st1" cx="2" cy="164.1" r="1"/>
		<circle class="st1" cx="2" cy="164.1" r="1"/>
		<circle class="st1" cx="2" cy="164.1" r="1"/>
		<circle class="st1" cx="2" cy="164.1" r="1"/>
		<circle class="st1" cx="2" cy="164.1" r="1"/>
		<circle class="st1" cx="2" cy="164.1" r="1"/>
		<circle class="st1" cx="2" cy="164.1" r="1"/>
		<circle class="st1" cx="2" cy="164.1" r="1"/>
		<circle class="st1" cx="2" cy="164.1" r="1"/>
		<circle class="st1" cx="2" cy="164.1" r="1"/>
		<circle class="st1" cx="2" cy="164.1" r="1"/>
		<circle class="st1" cx="2" cy="164.1" r="1"/>
		<circle class="st1" cx="2" cy="164.1" r="1"/>
		<circle class="st1" cx="2" cy="164.1" r="1"/>
		<circle class="st1" cx="2" cy="164.1" r="1"/>
		<circle class="st1" cx="1110.9" cy="186.5" r="1"/>
		<circle class="st1" cx="1570.1" cy="14.8" r="1"/>
		<circle class="st1" cx="1350.6" cy="775.7" r="1"/>
		<circle class="st1" cx="198.7" cy="295.2" r="2"/>
		<circle class="st1" cx="903.7" cy="817.4" r="1"/>
		<circle class="st1" cx="247.7" cy="0" r="1"/>
	</g>
</g>
</svg>
